<?xml version="1.0" encoding="UTF-8"?>
<svg width="9px" height="9px" viewBox="0 0 9 9" version="1.1" xmlns="http://www.w3.org/2000/svg" xmlns:xlink="http://www.w3.org/1999/xlink">
    <!-- Generator: Sketch 51.3 (57544) - http://www.bohemiancoding.com/sketch -->
    <title>heart</title>
    <desc>Created with Sketch.</desc>
    <defs></defs>
    <g id="Page-1" stroke="none" stroke-width="1" fill="none" fill-rule="evenodd">
        <g id="heart" fill-rule="nonzero">
            <polygon id="Shape" fill="#000000" points="2 0 4 0 4 1 5 1 5 0 7 0 7 1 8 1 8 2 9 2 9 5 8 5 8 6 7 6 7 7 6 7 6 8 5 8 5 9 4 9 4 8 3 8 3 7 2 7 2 6 1 6 1 5 0 5 0 2 1 2 1 1 2 1"></polygon>
            <polyline id="Shape" fill="#3E8CF7" points="2 1 4 1 4 2 5 2 5 1 7 1 7 2 8 2 8 5 7 5 7 6 6 6 6 7 5 7 5 8 4 8 4 7 3 7 3 6 2 6 2 5 1 5 1 2 2 2 2 1"></polyline>
            <g id="Group" transform="translate(1.000000, 2.000000)">
                <polygon id="Shape" fill="#ACCDFF" points="1 1 1 0 2 0 2 1"></polygon>
                <polyline id="Shape" fill="#114493" points="0 2 1 2 1 3 2 3 2 4 3 4 3 5 4 5 4 4 5 4 5 3 6 3 6 2 7 2 7 3 6 3 6 4 5 4 5 5 4 5 4 6 3 6 3 5 2 5 2 4 1 4 1 3 0 3 0 2"></polyline>
            </g>
        </g>
    </g>
</svg>